<svg id="SvgjsSvg1006" width="924" height="464" xmlns="http://www.w3.org/2000/svg" version="1.1" xmlns:xlink="http://www.w3.org/1999/xlink" xmlns:svgjs="http://svgjs.com/svgjs"><defs id="SvgjsDefs1007"><pattern patternUnits="userSpaceOnUse" id="pattern_mark_0" width="300" height="300"><text x="150" y="100" fill="rgba(229,229,229,0.8)" font-size="18" transform="rotate(-45, 150, 150)" style="dominant-baseline: middle; text-anchor: middle;"></text></pattern><pattern patternUnits="userSpaceOnUse" id="pattern_mark_1" width="300" height="300"><text x="150" y="200" fill="rgba(229,229,229,0.8)" font-size="18" transform="rotate(-45, 150, 150)" style="dominant-baseline: middle; text-anchor: middle;"></text></pattern><marker id="SvgjsMarker1043" markerWidth="13" markerHeight="9" refX="9.5" refY="4.5" viewBox="0 0 13 9" orient="auto" markerUnits="userSpaceOnUse" stroke-dasharray="0,0"><path id="SvgjsPath1044" d="M0,0 L13,4.5 L0,9 L0,0" fill="#323232" stroke="#323232" stroke-width="1"></path></marker><marker id="SvgjsMarker1047" markerWidth="13" markerHeight="9" refX="9.5" refY="4.5" viewBox="0 0 13 9" orient="auto" markerUnits="userSpaceOnUse" stroke-dasharray="0,0"><path id="SvgjsPath1048" d="M0,0 L13,4.5 L0,9 L0,0" fill="#323232" stroke="#323232" stroke-width="1"></path></marker><marker id="SvgjsMarker1051" markerWidth="13" markerHeight="9" refX="9.5" refY="4.5" viewBox="0 0 13 9" orient="auto" markerUnits="userSpaceOnUse" stroke-dasharray="0,0"><path id="SvgjsPath1052" d="M0,0 L13,4.5 L0,9 L0,0" fill="#323232" stroke="#323232" stroke-width="1"></path></marker><marker id="SvgjsMarker1055" markerWidth="13" markerHeight="9" refX="9.5" refY="4.5" viewBox="0 0 13 9" orient="auto" markerUnits="userSpaceOnUse" stroke-dasharray="0,0"><path id="SvgjsPath1056" d="M0,0 L13,4.5 L0,9 L0,0" fill="#323232" stroke="#323232" stroke-width="1"></path></marker><marker id="SvgjsMarker1065" markerWidth="13" markerHeight="9" refX="9.5" refY="4.5" viewBox="0 0 13 9" orient="auto" markerUnits="userSpaceOnUse" stroke-dasharray="0,0"><path id="SvgjsPath1066" d="M0,0 L13,4.5 L0,9 L0,0" fill="#323232" stroke="#323232" stroke-width="1"></path></marker><marker id="SvgjsMarker1073" markerWidth="13" markerHeight="9" refX="9.5" refY="4.5" viewBox="0 0 13 9" orient="auto" markerUnits="userSpaceOnUse" stroke-dasharray="0,0"><path id="SvgjsPath1074" d="M0,0 L13,4.5 L0,9 L0,0" fill="#323232" stroke="#323232" stroke-width="1"></path></marker></defs><rect id="svgbackgroundid" width="924" height="464" fill="transparent"></rect><rect id="SvgjsRect1009" width="924" height="464" fill="url(#pattern_mark_0)"></rect><rect id="SvgjsRect1010" width="924" height="464" fill="url(#pattern_mark_1)"></rect><g id="SvgjsG1011" transform="translate(152,25)"><path id="SvgjsPath1012" d="M 0 4Q 0 0 4 0L 374.02702702702703 0Q 378.02702702702703 0 378.02702702702703 4L 378.02702702702703 50Q 378.02702702702703 54 374.02702702702703 54L 4 54Q 0 54 0 50Z" stroke="rgba(86,146,48,1)" stroke-width="1.5" fill-opacity="1" fill="#e5f6da"></path><g id="SvgjsG1013"><text id="SvgjsText1014" font-family="&quot;Microsoft YaHei&quot;, 微软雅黑, Arial" text-anchor="middle" font-size="15px" width="359px" fill="#323232" font-weight="700" align="middle" lineHeight="125%" anchor="middle" family="&quot;Microsoft YaHei&quot;, 微软雅黑, Arial" size="15px" weight="700" font-style="" opacity="1" y="14.625" transform="rotate(0)"><tspan id="SvgjsTspan1015" dy="18.75" x="189.5"><tspan id="SvgjsTspan1016" style="">before: DpartmentController.add</tspan></tspan></text></g></g><g id="SvgjsG1017" transform="translate(152,385)"><path id="SvgjsPath1018" d="M 0 4Q 0 0 4 0L 374.02702702702703 0Q 378.02702702702703 0 378.02702702702703 4L 378.02702702702703 50Q 378.02702702702703 54 374.02702702702703 54L 4 54Q 0 54 0 50Z" stroke="rgba(86,146,48,1)" stroke-width="1.5" fill-opacity="1" fill="#e5f6da"></path><g id="SvgjsG1019"><text id="SvgjsText1020" font-family="&quot;Microsoft YaHei&quot;, 微软雅黑, Arial" text-anchor="middle" font-size="15px" width="359px" fill="#323232" font-weight="700" align="middle" lineHeight="125%" anchor="middle" family="&quot;Microsoft YaHei&quot;, 微软雅黑, Arial" size="15px" weight="700" font-style="" opacity="1" y="14.625" transform="rotate(0)"><tspan id="SvgjsTspan1021" dy="18.75" x="189.5"><tspan id="SvgjsTspan1022" style="">after: DpartmentController.add</tspan></tspan></text></g></g><g id="SvgjsG1023" transform="translate(152,117.5)"><path id="SvgjsPath1024" d="M 0 4Q 0 0 4 0L 374.02702702702703 0Q 378.02702702702703 0 378.02702702702703 4L 378.02702702702703 50Q 378.02702702702703 54 374.02702702702703 54L 4 54Q 0 54 0 50Z" stroke="rgba(162,55,53,1)" stroke-width="1.5" fill-opacity="1" fill="#fadcdb"></path><g id="SvgjsG1025"><text id="SvgjsText1026" font-family="&quot;Microsoft YaHei&quot;, 微软雅黑, Arial" text-anchor="middle" font-size="15px" width="359px" fill="#323232" font-weight="700" align="middle" lineHeight="125%" anchor="middle" family="&quot;Microsoft YaHei&quot;, 微软雅黑, Arial" size="15px" weight="700" font-style="" opacity="1" y="14.625" transform="rotate(0)"><tspan id="SvgjsTspan1027" dy="18.75" x="189.5"><tspan id="SvgjsTspan1028" style="">before: DpartmentDomainServiceImpl.add</tspan></tspan></text></g></g><g id="SvgjsG1029" transform="translate(152.00000000000006,295)"><path id="SvgjsPath1030" d="M 0 4Q 0 0 4 0L 374.02702702702703 0Q 378.02702702702703 0 378.02702702702703 4L 378.02702702702703 50Q 378.02702702702703 54 374.02702702702703 54L 4 54Q 0 54 0 50Z" stroke="rgba(162,55,53,1)" stroke-width="1.5" fill-opacity="1" fill="#fadcdb"></path><g id="SvgjsG1031"><text id="SvgjsText1032" font-family="&quot;Microsoft YaHei&quot;, 微软雅黑, Arial" text-anchor="middle" font-size="15px" width="359px" fill="#323232" font-weight="700" align="middle" lineHeight="125%" anchor="middle" family="&quot;Microsoft YaHei&quot;, 微软雅黑, Arial" size="15px" weight="700" font-style="" opacity="1" y="14.625" transform="rotate(0)"><tspan id="SvgjsTspan1033" dy="18.75" x="189.5"><tspan id="SvgjsTspan1034" style="">after: DpartmentDomainServiceImpl.add</tspan></tspan></text></g></g><g id="SvgjsG1035" transform="translate(152.00000000000006,210)"><path id="SvgjsPath1036" d="M 0 4Q 0 0 4 0L 374.027027027027 0Q 378.027027027027 0 378.027027027027 4L 378.027027027027 50Q 378.027027027027 54 374.027027027027 54L 4 54Q 0 54 0 50Z" stroke="rgba(246,187,219,1)" stroke-width="1.5" fill-opacity="1" fill="#f6bbdb"></path><g id="SvgjsG1037"><text id="SvgjsText1038" font-family="&quot;Microsoft YaHei&quot;, 微软雅黑, Arial" text-anchor="middle" font-size="15px" width="359px" fill="#323232" font-weight="700" align="middle" lineHeight="125%" anchor="middle" family="&quot;Microsoft YaHei&quot;, 微软雅黑, Arial" size="15px" weight="700" font-style="" opacity="1" y="14.625" transform="rotate(0)"><tspan id="SvgjsTspan1039" dy="18.75" x="189.5"><tspan id="SvgjsTspan1040" style="">DpartmentDomainServiceImpl.add()</tspan></tspan></text></g></g><g id="SvgjsG1041"><path id="SvgjsPath1042" d="M341.01351351351354 79.75L341.01351351351354 98.25L341.01351351351354 98.25L341.01351351351354 114.80000000000001" stroke="#323232" stroke-width="1.5" fill="none" marker-end="url(#SvgjsMarker1043)"></path></g><g id="SvgjsG1045"><path id="SvgjsPath1046" d="M341.01351351351354 172.25L341.01351351351354 190.75L341.01351351351354 190.75L341.01351351351354 207.3" stroke="#323232" stroke-width="1.5" fill="none" marker-end="url(#SvgjsMarker1047)"></path></g><g id="SvgjsG1049"><path id="SvgjsPath1050" d="M341.01351351351354 264.75L341.01351351351354 279.5L341.01351351351354 279.5L341.01351351351354 292.3" stroke="#323232" stroke-width="1.5" fill="none" marker-end="url(#SvgjsMarker1051)"></path></g><g id="SvgjsG1053"><path id="SvgjsPath1054" d="M341.01351351351354 349.75L341.01351351351354 367L341.01351351351354 367L341.01351351351354 382.3" stroke="#323232" stroke-width="1.5" fill="none" marker-end="url(#SvgjsMarker1055)"></path></g><g id="SvgjsG1057" transform="translate(689,186.5)"><path id="SvgjsPath1058" d="M 0 0L 210 0L 210 101L 0 101Z" stroke="rgba(91,121,232,1)" stroke-width="1.5" fill-opacity="1" fill="#5b79e8"></path><g id="SvgjsG1059"><text id="SvgjsText1060" font-family="&quot;Microsoft YaHei&quot;, 微软雅黑, Arial" text-anchor="middle" font-size="15px" width="190px" fill="#ffffff" font-weight="700" align="middle" lineHeight="125%" anchor="middle" family="&quot;Microsoft YaHei&quot;, 微软雅黑, Arial" size="15px" weight="700" font-style="" opacity="1" y="38.125" transform="rotate(0)"><tspan id="SvgjsTspan1061" dy="18.75" x="105"><tspan id="SvgjsTspan1062" style="">ThreadLocal&lt;Context&gt;</tspan></tspan></text></g></g><g id="SvgjsG1063"><path id="SvgjsPath1064" d="M530.7770270270271 52L794 52L794 183.8" stroke="#323232" stroke-width="1.5" fill="none" marker-end="url(#SvgjsMarker1065)"></path><rect id="SvgjsRect1067" width="22.4" height="21" x="696.0609445762346" y="41.5" fill="#ffffff"></rect><text id="SvgjsText1068" font-family="&quot;Microsoft YaHei&quot;, 微软雅黑, Arial" text-anchor="middle" font-size="15px" width="22.4px" fill="#323232" font-weight="700" align="top" lineHeight="19px" anchor="middle" family="&quot;Microsoft YaHei&quot;, 微软雅黑, Arial" size="15px" weight="700" font-style="" opacity="1" y="38.625" transform="rotate(0)"><tspan id="SvgjsTspan1069" dy="18.75" x="707.0609445762346"><tspan id="SvgjsTspan1070" style="">set</tspan></tspan></text></g><g id="SvgjsG1071"><path id="SvgjsPath1072" d="M530.7770270270271 412L794 412L794 290.2" stroke="#323232" stroke-width="1.5" fill="none" marker-end="url(#SvgjsMarker1073)"></path><rect id="SvgjsRect1075" width="36.4" height="21" x="656.1291132198953" y="401.5" fill="#ffffff"></rect><text id="SvgjsText1076" font-family="&quot;Microsoft YaHei&quot;, 微软雅黑, Arial" text-anchor="middle" font-size="15px" width="36.4px" fill="#323232" font-weight="700" align="top" lineHeight="19px" anchor="middle" family="&quot;Microsoft YaHei&quot;, 微软雅黑, Arial" size="15px" weight="700" font-style="" opacity="1" y="398.625" transform="rotate(0)"><tspan id="SvgjsTspan1077" dy="18.75" x="674.1291132198953"><tspan id="SvgjsTspan1078" style="">clear</tspan></tspan></text></g><g id="SvgjsG1079"><path id="SvgjsPath1080" d="M151.25 52L25 52L25 412L151.25 412" stroke-dasharray="7.5,3" stroke="#323232" stroke-width="1.5" fill="none"></path></g><g id="SvgjsG1081"><path id="SvgjsPath1082" d="M151.25 144.5L87 144.5L87 322L151.25 322" stroke-dasharray="7.5,3" stroke="#323232" stroke-width="1.5" fill="none"></path></g><g id="SvgjsG1083"></g></svg>